<mxfile host="app.diagrams.net" modified="2024-03-10T05:39:35.575Z" agent="Mozilla/5.0 (Windows NT 10.0; Win64; x64) AppleWebKit/537.36 (KHTML, like Gecko) Chrome/122.0.0.0 Safari/537.36" etag="TDfYYe-JZ5_b2qWePmJT" version="23.1.6" type="device">
  <diagram name="Page-1" id="sgOUJW5Z0-Xdx17gPhFr">
    <mxGraphModel dx="724" dy="360" grid="1" gridSize="10" guides="1" tooltips="1" connect="1" arrows="1" fold="1" page="1" pageScale="1" pageWidth="850" pageHeight="1100" math="0" shadow="0">
      <root>
        <mxCell id="0" />
        <mxCell id="1" parent="0" />
        <mxCell id="XtcxbvYK22tCAOQ2OVT7-1" value="" style="whiteSpace=wrap;html=1;aspect=fixed;strokeColor=#000000;" vertex="1" parent="1">
          <mxGeometry x="40" y="60" width="550" height="550" as="geometry" />
        </mxCell>
        <mxCell id="XtcxbvYK22tCAOQ2OVT7-6" value="" style="shape=table;startSize=0;container=1;collapsible=0;childLayout=tableLayout;fontSize=16;gradientColor=none;" vertex="1" parent="1">
          <mxGeometry x="210" y="390" width="200" height="110" as="geometry" />
        </mxCell>
        <mxCell id="XtcxbvYK22tCAOQ2OVT7-7" value="" style="shape=tableRow;horizontal=0;startSize=0;swimlaneHead=0;swimlaneBody=0;strokeColor=inherit;top=0;left=0;bottom=0;right=0;collapsible=0;dropTarget=0;fillColor=none;points=[[0,0.5],[1,0.5]];portConstraint=eastwest;fontSize=16;" vertex="1" parent="XtcxbvYK22tCAOQ2OVT7-6">
          <mxGeometry width="200" height="55" as="geometry" />
        </mxCell>
        <mxCell id="XtcxbvYK22tCAOQ2OVT7-8" value="ID" style="shape=partialRectangle;html=1;whiteSpace=wrap;connectable=0;strokeColor=inherit;overflow=hidden;fillColor=none;top=0;left=0;bottom=0;right=0;pointerEvents=1;fontSize=16;" vertex="1" parent="XtcxbvYK22tCAOQ2OVT7-7">
          <mxGeometry width="40" height="55" as="geometry">
            <mxRectangle width="40" height="55" as="alternateBounds" />
          </mxGeometry>
        </mxCell>
        <mxCell id="XtcxbvYK22tCAOQ2OVT7-9" value="name" style="shape=partialRectangle;html=1;whiteSpace=wrap;connectable=0;strokeColor=inherit;overflow=hidden;fillColor=none;top=0;left=0;bottom=0;right=0;pointerEvents=1;fontSize=16;" vertex="1" parent="XtcxbvYK22tCAOQ2OVT7-7">
          <mxGeometry x="40" width="90" height="55" as="geometry">
            <mxRectangle width="90" height="55" as="alternateBounds" />
          </mxGeometry>
        </mxCell>
        <mxCell id="XtcxbvYK22tCAOQ2OVT7-10" value="author" style="shape=partialRectangle;html=1;whiteSpace=wrap;connectable=0;strokeColor=inherit;overflow=hidden;fillColor=none;top=0;left=0;bottom=0;right=0;pointerEvents=1;fontSize=16;" vertex="1" parent="XtcxbvYK22tCAOQ2OVT7-7">
          <mxGeometry x="130" width="70" height="55" as="geometry">
            <mxRectangle width="70" height="55" as="alternateBounds" />
          </mxGeometry>
        </mxCell>
        <mxCell id="XtcxbvYK22tCAOQ2OVT7-11" value="" style="shape=tableRow;horizontal=0;startSize=0;swimlaneHead=0;swimlaneBody=0;strokeColor=inherit;top=0;left=0;bottom=0;right=0;collapsible=0;dropTarget=0;fillColor=none;points=[[0,0.5],[1,0.5]];portConstraint=eastwest;fontSize=16;" vertex="1" parent="XtcxbvYK22tCAOQ2OVT7-6">
          <mxGeometry y="55" width="200" height="28" as="geometry" />
        </mxCell>
        <mxCell id="XtcxbvYK22tCAOQ2OVT7-12" value="" style="shape=partialRectangle;html=1;whiteSpace=wrap;connectable=0;strokeColor=inherit;overflow=hidden;fillColor=none;top=0;left=0;bottom=0;right=0;pointerEvents=1;fontSize=16;" vertex="1" parent="XtcxbvYK22tCAOQ2OVT7-11">
          <mxGeometry width="40" height="28" as="geometry">
            <mxRectangle width="40" height="28" as="alternateBounds" />
          </mxGeometry>
        </mxCell>
        <mxCell id="XtcxbvYK22tCAOQ2OVT7-13" value="" style="shape=partialRectangle;html=1;whiteSpace=wrap;connectable=0;strokeColor=inherit;overflow=hidden;fillColor=none;top=0;left=0;bottom=0;right=0;pointerEvents=1;fontSize=16;" vertex="1" parent="XtcxbvYK22tCAOQ2OVT7-11">
          <mxGeometry x="40" width="90" height="28" as="geometry">
            <mxRectangle width="90" height="28" as="alternateBounds" />
          </mxGeometry>
        </mxCell>
        <mxCell id="XtcxbvYK22tCAOQ2OVT7-14" value="" style="shape=partialRectangle;html=1;whiteSpace=wrap;connectable=0;strokeColor=inherit;overflow=hidden;fillColor=none;top=0;left=0;bottom=0;right=0;pointerEvents=1;fontSize=16;" vertex="1" parent="XtcxbvYK22tCAOQ2OVT7-11">
          <mxGeometry x="130" width="70" height="28" as="geometry">
            <mxRectangle width="70" height="28" as="alternateBounds" />
          </mxGeometry>
        </mxCell>
        <mxCell id="XtcxbvYK22tCAOQ2OVT7-15" value="" style="shape=tableRow;horizontal=0;startSize=0;swimlaneHead=0;swimlaneBody=0;strokeColor=inherit;top=0;left=0;bottom=0;right=0;collapsible=0;dropTarget=0;fillColor=none;points=[[0,0.5],[1,0.5]];portConstraint=eastwest;fontSize=16;" vertex="1" parent="XtcxbvYK22tCAOQ2OVT7-6">
          <mxGeometry y="83" width="200" height="27" as="geometry" />
        </mxCell>
        <mxCell id="XtcxbvYK22tCAOQ2OVT7-16" value="" style="shape=partialRectangle;html=1;whiteSpace=wrap;connectable=0;strokeColor=inherit;overflow=hidden;fillColor=none;top=0;left=0;bottom=0;right=0;pointerEvents=1;fontSize=16;" vertex="1" parent="XtcxbvYK22tCAOQ2OVT7-15">
          <mxGeometry width="40" height="27" as="geometry">
            <mxRectangle width="40" height="27" as="alternateBounds" />
          </mxGeometry>
        </mxCell>
        <mxCell id="XtcxbvYK22tCAOQ2OVT7-17" value="" style="shape=partialRectangle;html=1;whiteSpace=wrap;connectable=0;strokeColor=inherit;overflow=hidden;fillColor=none;top=0;left=0;bottom=0;right=0;pointerEvents=1;fontSize=16;" vertex="1" parent="XtcxbvYK22tCAOQ2OVT7-15">
          <mxGeometry x="40" width="90" height="27" as="geometry">
            <mxRectangle width="90" height="27" as="alternateBounds" />
          </mxGeometry>
        </mxCell>
        <mxCell id="XtcxbvYK22tCAOQ2OVT7-18" value="" style="shape=partialRectangle;html=1;whiteSpace=wrap;connectable=0;strokeColor=inherit;overflow=hidden;fillColor=none;top=0;left=0;bottom=0;right=0;pointerEvents=1;fontSize=16;" vertex="1" parent="XtcxbvYK22tCAOQ2OVT7-15">
          <mxGeometry x="130" width="70" height="27" as="geometry">
            <mxRectangle width="70" height="27" as="alternateBounds" />
          </mxGeometry>
        </mxCell>
        <mxCell id="XtcxbvYK22tCAOQ2OVT7-19" value="search&amp;nbsp;" style="rounded=0;whiteSpace=wrap;html=1;" vertex="1" parent="1">
          <mxGeometry x="200" y="100" width="200" height="30" as="geometry" />
        </mxCell>
        <mxCell id="XtcxbvYK22tCAOQ2OVT7-21" value="" style="verticalLabelPosition=bottom;verticalAlign=top;html=1;shape=mxgraph.basic.patternFillRect;fillStyle=diagRev;step=5;fillStrokeWidth=0.2;fillStrokeColor=#dddddd;fillColor=#ffe6cc;strokeColor=#d79b00;" vertex="1" parent="1">
          <mxGeometry x="210" y="160" width="150" height="90" as="geometry" />
        </mxCell>
        <mxCell id="XtcxbvYK22tCAOQ2OVT7-23" value="" style="verticalLabelPosition=bottom;verticalAlign=top;html=1;shape=mxgraph.basic.patternFillRect;fillStyle=diagRev;step=5;fillStrokeWidth=0.2;fillStrokeColor=#dddddd;fillColor=#d5e8d4;strokeColor=#82b366;" vertex="1" parent="1">
          <mxGeometry x="380" y="160" width="150" height="90" as="geometry" />
        </mxCell>
        <mxCell id="XtcxbvYK22tCAOQ2OVT7-24" value="" style="verticalLabelPosition=bottom;verticalAlign=top;html=1;shape=mxgraph.basic.patternFillRect;fillStyle=hor;step=5;fillStrokeWidth=0.2;fillStrokeColor=#dddddd;" vertex="1" parent="1">
          <mxGeometry x="40" y="60" width="140" height="550" as="geometry" />
        </mxCell>
        <mxCell id="XtcxbvYK22tCAOQ2OVT7-25" value="category" style="rounded=0;whiteSpace=wrap;html=1;" vertex="1" parent="1">
          <mxGeometry x="420" y="100" width="110" height="30" as="geometry" />
        </mxCell>
        <mxCell id="XtcxbvYK22tCAOQ2OVT7-27" value="Dasboard" style="rounded=0;whiteSpace=wrap;html=1;align=center;fillColor=#ffe6cc;strokeColor=#d79b00;" vertex="1" parent="1">
          <mxGeometry x="40" y="180" width="140" height="30" as="geometry" />
        </mxCell>
        <mxCell id="XtcxbvYK22tCAOQ2OVT7-30" value="Donate" style="rounded=0;whiteSpace=wrap;html=1;align=center;" vertex="1" parent="1">
          <mxGeometry x="40" y="330" width="140" height="30" as="geometry" />
        </mxCell>
        <mxCell id="XtcxbvYK22tCAOQ2OVT7-32" value="Borrow" style="rounded=0;whiteSpace=wrap;html=1;align=center;" vertex="1" parent="1">
          <mxGeometry x="40" y="210" width="140" height="30" as="geometry" />
        </mxCell>
        <mxCell id="XtcxbvYK22tCAOQ2OVT7-33" value="Return" style="rounded=0;whiteSpace=wrap;html=1;align=center;" vertex="1" parent="1">
          <mxGeometry x="40" y="240" width="140" height="30" as="geometry" />
        </mxCell>
        <mxCell id="XtcxbvYK22tCAOQ2OVT7-34" value="Setting" style="rounded=0;whiteSpace=wrap;html=1;align=center;" vertex="1" parent="1">
          <mxGeometry x="40" y="300" width="140" height="30" as="geometry" />
        </mxCell>
        <mxCell id="XtcxbvYK22tCAOQ2OVT7-35" value="&lt;b&gt;&lt;font style=&quot;font-size: 14px;&quot;&gt;Logout&lt;/font&gt;&lt;/b&gt;" style="text;html=1;align=center;verticalAlign=middle;whiteSpace=wrap;rounded=0;" vertex="1" parent="1">
          <mxGeometry x="80" y="570" width="60" height="30" as="geometry" />
        </mxCell>
        <mxCell id="XtcxbvYK22tCAOQ2OVT7-36" value="" style="ellipse;whiteSpace=wrap;html=1;aspect=fixed;" vertex="1" parent="1">
          <mxGeometry x="80" y="80" width="60" height="60" as="geometry" />
        </mxCell>
        <mxCell id="XtcxbvYK22tCAOQ2OVT7-37" value="Blog" style="rounded=0;whiteSpace=wrap;html=1;align=center;" vertex="1" parent="1">
          <mxGeometry x="40" y="270" width="140" height="30" as="geometry" />
        </mxCell>
        <mxCell id="XtcxbvYK22tCAOQ2OVT7-38" value="Name" style="text;html=1;align=center;verticalAlign=middle;whiteSpace=wrap;rounded=0;" vertex="1" parent="1">
          <mxGeometry x="80" y="140" width="60" height="30" as="geometry" />
        </mxCell>
        <mxCell id="XtcxbvYK22tCAOQ2OVT7-39" value="Graph" style="rounded=0;whiteSpace=wrap;html=1;" vertex="1" parent="1">
          <mxGeometry x="210" y="270" width="320" height="100" as="geometry" />
        </mxCell>
        <mxCell id="XtcxbvYK22tCAOQ2OVT7-42" value="" style="shape=table;startSize=0;container=1;collapsible=0;childLayout=tableLayout;fontSize=16;gradientColor=none;" vertex="1" parent="1">
          <mxGeometry x="410" y="390" width="140" height="110" as="geometry" />
        </mxCell>
        <mxCell id="XtcxbvYK22tCAOQ2OVT7-43" value="" style="shape=tableRow;horizontal=0;startSize=0;swimlaneHead=0;swimlaneBody=0;strokeColor=inherit;top=0;left=0;bottom=0;right=0;collapsible=0;dropTarget=0;fillColor=none;points=[[0,0.5],[1,0.5]];portConstraint=eastwest;fontSize=16;" vertex="1" parent="XtcxbvYK22tCAOQ2OVT7-42">
          <mxGeometry width="140" height="55" as="geometry" />
        </mxCell>
        <mxCell id="XtcxbvYK22tCAOQ2OVT7-44" value="status" style="shape=partialRectangle;html=1;whiteSpace=wrap;connectable=0;strokeColor=inherit;overflow=hidden;fillColor=none;top=0;left=0;bottom=0;right=0;pointerEvents=1;fontSize=16;" vertex="1" parent="XtcxbvYK22tCAOQ2OVT7-43">
          <mxGeometry width="70" height="55" as="geometry">
            <mxRectangle width="70" height="55" as="alternateBounds" />
          </mxGeometry>
        </mxCell>
        <mxCell id="XtcxbvYK22tCAOQ2OVT7-45" value="room" style="shape=partialRectangle;html=1;whiteSpace=wrap;connectable=0;strokeColor=inherit;overflow=hidden;fillColor=none;top=0;left=0;bottom=0;right=0;pointerEvents=1;fontSize=16;" vertex="1" parent="XtcxbvYK22tCAOQ2OVT7-43">
          <mxGeometry x="70" width="50" height="55" as="geometry">
            <mxRectangle width="50" height="55" as="alternateBounds" />
          </mxGeometry>
        </mxCell>
        <mxCell id="XtcxbvYK22tCAOQ2OVT7-46" value="" style="shape=partialRectangle;html=1;whiteSpace=wrap;connectable=0;strokeColor=inherit;overflow=hidden;fillColor=none;top=0;left=0;bottom=0;right=0;pointerEvents=1;fontSize=16;" vertex="1" parent="XtcxbvYK22tCAOQ2OVT7-43">
          <mxGeometry x="120" width="20" height="55" as="geometry">
            <mxRectangle width="20" height="55" as="alternateBounds" />
          </mxGeometry>
        </mxCell>
        <mxCell id="XtcxbvYK22tCAOQ2OVT7-47" value="" style="shape=tableRow;horizontal=0;startSize=0;swimlaneHead=0;swimlaneBody=0;strokeColor=inherit;top=0;left=0;bottom=0;right=0;collapsible=0;dropTarget=0;fillColor=none;points=[[0,0.5],[1,0.5]];portConstraint=eastwest;fontSize=16;" vertex="1" parent="XtcxbvYK22tCAOQ2OVT7-42">
          <mxGeometry y="55" width="140" height="28" as="geometry" />
        </mxCell>
        <mxCell id="XtcxbvYK22tCAOQ2OVT7-48" value="&lt;font style=&quot;font-size: 12px;&quot;&gt;available&lt;/font&gt;" style="shape=partialRectangle;html=1;whiteSpace=wrap;connectable=0;strokeColor=inherit;overflow=hidden;fillColor=none;top=0;left=0;bottom=0;right=0;pointerEvents=1;fontSize=16;" vertex="1" parent="XtcxbvYK22tCAOQ2OVT7-47">
          <mxGeometry width="70" height="28" as="geometry">
            <mxRectangle width="70" height="28" as="alternateBounds" />
          </mxGeometry>
        </mxCell>
        <mxCell id="XtcxbvYK22tCAOQ2OVT7-49" value="&lt;font style=&quot;font-size: 12px;&quot;&gt;men&lt;/font&gt;" style="shape=partialRectangle;html=1;whiteSpace=wrap;connectable=0;strokeColor=inherit;overflow=hidden;fillColor=none;top=0;left=0;bottom=0;right=0;pointerEvents=1;fontSize=16;" vertex="1" parent="XtcxbvYK22tCAOQ2OVT7-47">
          <mxGeometry x="70" width="50" height="28" as="geometry">
            <mxRectangle width="50" height="28" as="alternateBounds" />
          </mxGeometry>
        </mxCell>
        <mxCell id="XtcxbvYK22tCAOQ2OVT7-50" value="" style="shape=partialRectangle;html=1;whiteSpace=wrap;connectable=0;strokeColor=inherit;overflow=hidden;fillColor=none;top=0;left=0;bottom=0;right=0;pointerEvents=1;fontSize=16;" vertex="1" parent="XtcxbvYK22tCAOQ2OVT7-47">
          <mxGeometry x="120" width="20" height="28" as="geometry">
            <mxRectangle width="20" height="28" as="alternateBounds" />
          </mxGeometry>
        </mxCell>
        <mxCell id="XtcxbvYK22tCAOQ2OVT7-51" value="" style="shape=tableRow;horizontal=0;startSize=0;swimlaneHead=0;swimlaneBody=0;strokeColor=inherit;top=0;left=0;bottom=0;right=0;collapsible=0;dropTarget=0;fillColor=none;points=[[0,0.5],[1,0.5]];portConstraint=eastwest;fontSize=16;" vertex="1" parent="XtcxbvYK22tCAOQ2OVT7-42">
          <mxGeometry y="83" width="140" height="27" as="geometry" />
        </mxCell>
        <mxCell id="XtcxbvYK22tCAOQ2OVT7-52" value="&lt;font style=&quot;font-size: 13px;&quot;&gt;unavailable&lt;/font&gt;" style="shape=partialRectangle;html=1;whiteSpace=wrap;connectable=0;strokeColor=inherit;overflow=hidden;fillColor=none;top=0;left=0;bottom=0;right=0;pointerEvents=1;fontSize=16;" vertex="1" parent="XtcxbvYK22tCAOQ2OVT7-51">
          <mxGeometry width="70" height="27" as="geometry">
            <mxRectangle width="70" height="27" as="alternateBounds" />
          </mxGeometry>
        </mxCell>
        <mxCell id="XtcxbvYK22tCAOQ2OVT7-53" value="&lt;font style=&quot;font-size: 12px;&quot;&gt;women&lt;/font&gt;" style="shape=partialRectangle;html=1;whiteSpace=wrap;connectable=0;strokeColor=inherit;overflow=hidden;fillColor=none;top=0;left=0;bottom=0;right=0;pointerEvents=1;fontSize=16;" vertex="1" parent="XtcxbvYK22tCAOQ2OVT7-51">
          <mxGeometry x="70" width="50" height="27" as="geometry">
            <mxRectangle width="50" height="27" as="alternateBounds" />
          </mxGeometry>
        </mxCell>
        <mxCell id="XtcxbvYK22tCAOQ2OVT7-54" value="" style="shape=partialRectangle;html=1;whiteSpace=wrap;connectable=0;strokeColor=inherit;overflow=hidden;fillColor=none;top=0;left=0;bottom=0;right=0;pointerEvents=1;fontSize=16;" vertex="1" parent="XtcxbvYK22tCAOQ2OVT7-51">
          <mxGeometry x="120" width="20" height="27" as="geometry">
            <mxRectangle width="20" height="27" as="alternateBounds" />
          </mxGeometry>
        </mxCell>
      </root>
    </mxGraphModel>
  </diagram>
</mxfile>
